<svg width="15" height="15" viewBox="0 0 15 15" fill="none" xmlns="http://www.w3.org/2000/svg">
<path d="M9.5301 7.5L13.4602 3.56989C14.0208 3.00926 14.0208 2.10033 13.4602 1.5397C12.8996 0.979076 11.9907 0.979076 11.43 1.5397L7.49991 5.46982L3.5698 1.5397C3.00917 0.979076 2.10023 0.979076 1.53961 1.5397C0.978984 2.10033 0.978984 3.00926 1.53961 3.56989L5.46973 7.5L1.53961 11.4301C0.978984 11.9907 0.978984 12.8997 1.53961 13.4603C1.81992 13.7406 2.1873 13.8808 2.55469 13.8808C2.92207 13.8808 3.28948 13.7406 3.56977 13.4603L7.49991 9.53019L11.43 13.4603C11.7103 13.7406 12.0777 13.8808 12.4451 13.8808C12.8125 13.8808 13.1799 13.7406 13.4602 13.4603C14.0208 12.8997 14.0208 11.9907 13.4602 11.4301L9.5301 7.5Z" fill="white"/>
</svg>
