<svg width="24" height="24" viewBox="0 0 24 24" fill="none" xmlns="http://www.w3.org/2000/svg">
<path d="M11.9998 14.975C11.8665 14.975 11.7371 14.95 11.6118 14.9C11.4865 14.85 11.3825 14.7833 11.2998 14.7L6.6998 10.1C6.51647 9.91667 6.4248 9.68334 6.4248 9.4C6.4248 9.11667 6.51647 8.88334 6.6998 8.7C6.88314 8.51667 7.11647 8.425 7.3998 8.425C7.68314 8.425 7.91647 8.51667 8.0998 8.7L11.9998 12.6L15.8998 8.7C16.0831 8.51667 16.3165 8.425 16.5998 8.425C16.8831 8.425 17.1165 8.51667 17.2998 8.7C17.4831 8.88334 17.5748 9.11667 17.5748 9.4C17.5748 9.68334 17.4831 9.91667 17.2998 10.1L12.6998 14.7C12.5998 14.8 12.4915 14.871 12.3748 14.913C12.2581 14.955 12.1331 14.9757 11.9998 14.975Z" fill="black"/>
</svg>
