<?xml version="1.0" standalone="no"?>
<!DOCTYPE svg PUBLIC "-//W3C//DTD SVG 20010904//EN"
 "http://www.w3.org/TR/2001/REC-SVG-20010904/DTD/svg10.dtd">
<svg version="1.0" xmlns="http://www.w3.org/2000/svg"
 width="512.000000pt" height="512.000000pt" viewBox="0 0 512.000000 512.000000"
 preserveAspectRatio="xMidYMid meet">

<g transform="translate(0.000000,512.000000) scale(0.100000,-0.100000)"
fill="#000000" stroke="none">
<path d="M205 4462 c-65 -22 -109 -55 -146 -105 -62 -86 -59 19 -59 -1798 0
-1868 -7 -1716 78 -1810 25 -28 63 -60 86 -72 l41 -22 2355 0 c2252 0 2356 1
2388 18 55 30 112 88 140 141 l27 51 0 1695 0 1695 -28 57 c-32 64 -80 111
-146 142 l-46 21 -2320 2 c-2182 2 -2323 1 -2370 -15z m1132 -642 c61 -27 85
-70 80 -142 -2 -44 -9 -64 -28 -84 -47 -50 -64 -54 -264 -54 l-185 0 2 -252 3
-253 86 -3 86 -3 5 108 c5 124 19 160 73 193 69 43 164 21 206 -46 17 -28 19
-51 19 -239 0 -193 -1 -210 -21 -242 -41 -66 -52 -68 -364 -68 -311 0 -320 2
-367 67 l-23 33 -3 415 c-2 228 0 434 3 458 8 52 53 108 99 121 17 5 148 10
291 10 236 0 264 -1 302 -19z m979 -6 c15 -11 37 -33 48 -48 20 -27 21 -39 21
-481 0 -445 0 -454 -21 -482 -48 -64 -147 -87 -201 -47 -59 44 -68 67 -73 187
l-5 112 -87 3 -88 3 0 -98 c0 -83 -4 -106 -22 -143 -41 -80 -136 -108 -211
-62 -67 42 -67 40 -67 529 0 499 -2 487 81 531 43 23 47 23 321 20 261 -3 278
-4 304 -24z m1264 4 c82 -43 80 -32 80 -531 0 -489 0 -487 -67 -529 -75 -46
-170 -18 -210 62 -23 43 -23 52 -23 382 l0 338 -50 0 -50 0 0 -349 c0 -344 0
-348 -22 -381 -36 -52 -71 -73 -121 -73 -51 0 -100 25 -131 66 -20 27 -21 40
-24 383 l-3 354 -49 0 -49 0 -3 -354 c-3 -340 -4 -356 -24 -382 -36 -49 -70
-68 -123 -68 -38 0 -57 6 -86 28 -65 50 -65 48 -65 520 0 277 4 435 11 453 6
15 20 39 32 52 46 49 53 50 507 51 422 0 426 0 470 -22z m792 12 c48 -14 94
-67 103 -120 6 -33 2 -51 -17 -87 -35 -69 -69 -83 -200 -83 l-108 0 0 -50 0
-50 88 0 c146 0 206 -31 233 -119 11 -37 10 -47 -7 -89 -12 -28 -32 -55 -53
-69 -30 -21 -46 -23 -147 -23 l-114 0 0 -55 0 -55 114 0 c101 0 117 -2 147
-23 21 -14 41 -41 53 -69 17 -42 18 -52 7 -89 -17 -55 -57 -94 -111 -109 -27
-7 -108 -10 -224 -8 -201 3 -227 11 -267 74 -18 30 -19 54 -19 480 0 433 1
450 20 482 37 61 80 72 285 72 99 0 197 -5 217 -10z m-3024 -1460 c18 -11 41
-34 52 -52 19 -32 20 -52 20 -478 0 -426 -1 -446 -20 -478 -11 -18 -34 -41
-52 -52 -31 -19 -47 -20 -323 -18 -327 3 -325 3 -365 84 -19 38 -20 59 -20
464 0 403 1 426 20 465 12 25 34 49 57 63 37 21 49 22 318 22 262 0 282 -1
313 -20z m482 -2 c74 -51 74 -52 80 -327 l5 -247 34 -44 c19 -25 38 -49 42
-53 3 -5 27 18 53 51 l46 60 0 234 c0 202 2 238 18 267 24 48 62 73 119 78 63
6 110 -20 140 -77 22 -42 23 -52 23 -307 0 -203 -3 -271 -14 -297 -8 -18 -73
-112 -146 -209 -139 -186 -163 -207 -237 -207 -21 0 -52 9 -70 20 -28 17 -242
288 -293 372 -19 31 -20 50 -20 319 0 281 0 287 23 320 44 67 135 88 197 47z
m1279 4 c48 -24 73 -62 78 -119 6 -65 -20 -111 -77 -140 -37 -20 -60 -23 -147
-23 l-103 0 0 -50 0 -50 106 0 c120 0 161 -13 197 -64 30 -42 31 -132 2 -172
-39 -51 -79 -64 -197 -64 l-108 0 0 -50 0 -50 103 0 c122 0 178 -21 209 -80
24 -44 19 -120 -9 -158 -42 -58 -67 -63 -300 -60 -236 3 -246 6 -285 78 -17
33 -18 61 -16 480 3 441 3 445 25 476 42 58 66 64 288 64 171 0 205 -3 234
-18z m1143 -20 c160 -78 250 -250 219 -418 -15 -81 -46 -140 -110 -207 l-54
-57 80 -83 c67 -69 82 -89 88 -125 19 -115 -112 -211 -213 -158 -15 8 -92 80
-172 160 l-145 146 -137 0 -138 0 0 -107 c0 -90 -3 -113 -20 -141 -58 -96
-183 -95 -254 1 -21 28 -21 38 -21 477 0 439 0 449 21 477 11 15 36 38 55 51
l33 23 351 -3 350 -3 67 -33z"/>
<path d="M1910 3450 l0 -90 90 0 90 0 0 90 0 90 -90 0 -90 0 0 -90z"/>
<path d="M940 1840 l0 -250 90 0 90 0 0 250 0 250 -90 0 -90 0 0 -250z"/>
<path d="M3670 2000 l0 -90 221 0 c132 0 228 4 240 10 29 16 51 67 44 101 -4
16 -18 38 -32 49 -24 19 -40 20 -249 20 l-224 0 0 -90z"/>
</g>
</svg>
